# xmcd
#
# Track frame offsets: 
#        150
#        23391
#        49166
#        71285
#        96523
#        113236
#        133916
#        156153
#        169815
#        186005
#        203386
#        219545
#        240129
#        266522
#        286509
#        306577
#        328002
#
# Disc length: 4684 seconds
#
# Revision: 2
# Processed by: cddbd v1.5.2PL0 Copyright (c) Steve Scherf et al.
# Submitted via: ExactAudioCopyFreeDBPlugin 1.0
#
DISCID=e8124a11
DTITLE=松崎しげる - Shigeru Matsuzaki 40th Anniversary All Time Best Old and 
DTITLE=New -I`m A Singer-
DYEAR=2011
DGENRE=JPops
TTITLE0=Yah Yah Yah
TTITLE1=For Your Love
TTITLE2=I'm Livin' for Your Love
TTITLE3=Take a Flight
TTITLE4=My Song
TTITLE5=遺言
TTITLE6=Still...... ～思い出が君を忘れない
TTITLE7=時代遅れのLove Song
TTITLE8=オヤコのマーチ
TTITLE9=君は輝いている
TTITLE10=黄色い麦わら帽子
TTITLE11=セーリングラブ
TTITLE12=My Love Song
TTITLE13=私の歌
TTITLE14=グッド・バイ・マイ・ラブ
TTITLE15=夏の夢
TTITLE16=Fallin'
EXTD=Powerd by gracenote music web API
EXTT0=
EXTT1=
EXTT2=
EXTT3=
EXTT4=
EXTT5=
EXTT6=
EXTT7=
EXTT8=
EXTT9=
EXTT10=
EXTT11=
EXTT12=
EXTT13=
EXTT14=
EXTT15=
EXTT16=
PLAYORDER=
